<svg preserveAspectRatio="none" width="100%" height="100%" overflow="visible" style="display: block;" viewBox="0 0 105.6 73.6" fill="none" xmlns="http://www.w3.org/2000/svg">
<g id="Frame 12439">
<g id="title" filter="url(#filter0_d_0_9)">
<path d="M10.3 64.3C9.19543 64.3 8.3 63.4046 8.3 62.3V33.8473C8.3 33.5861 8.35118 33.3274 8.45065 33.0858L18.5587 8.53848C18.8673 7.78909 19.5976 7.3 20.4081 7.3H38.7168C40.0385 7.3 40.9968 8.55928 40.6444 9.83319L35.0778 29.9578C34.7254 31.2317 35.6837 32.491 37.0054 32.491H45.7852C46.8897 32.491 47.7852 33.3864 47.7852 34.491V62.3C47.7852 63.4046 46.8897 64.3 45.7852 64.3H10.3ZM59.8148 64.3C58.7103 64.3 57.8148 63.4046 57.8148 62.3V33.8473C57.8148 33.5861 57.866 33.3274 57.9655 33.0858L68.0735 8.53848C68.3821 7.78909 69.1124 7.3 69.9229 7.3H88.2316C89.5533 7.3 90.5116 8.55928 90.1592 9.83319L84.5926 29.9578C84.2403 31.2317 85.1985 32.491 86.5202 32.491H95.3C96.4046 32.491 97.3 33.3864 97.3 34.491V62.3C97.3 63.4046 96.4046 64.3 95.3 64.3H59.8148Z" fill="white"/>
</g>
</g>
<defs>
<filter id="filter0_d_0_9" x="0" y="0" width="105.6" height="73.6" filterUnits="userSpaceOnUse" color-interpolation-filters="sRGB">
<feFlood flood-opacity="0" result="BackgroundImageFix"/>
<feColorMatrix in="SourceAlpha" type="matrix" values="0 0 0 0 0 0 0 0 0 0 0 0 0 0 0 0 0 0 127 0" result="hardAlpha"/>
<feOffset dy="1"/>
<feGaussianBlur stdDeviation="4.15"/>
<feComposite in2="hardAlpha" operator="out"/>
<feColorMatrix type="matrix" values="0 0 0 0 0.558581 0 0 0 0 0.517262 0 0 0 0 0.586127 0 0 0 0.72 0"/>
<feBlend mode="normal" in2="BackgroundImageFix" result="effect1_dropShadow_0_9"/>
<feBlend mode="normal" in="SourceGraphic" in2="effect1_dropShadow_0_9" result="shape"/>
</filter>
</defs>
</svg>
